<?xml version="1.0" encoding="UTF-8"?><svg id="Layer_2" xmlns="http://www.w3.org/2000/svg" viewBox="0 0 266.65 74.73"><defs><style>.cls-1{fill:none;stroke:#53bc83;stroke-miterlimit:10;stroke-width:3px;}.cls-2{fill:#53bc83;}</style></defs><g id="Layer_1-2"><g><path class="cls-2" d="m85.33,26.93c1.56-1.07,3.52-1.6,5.87-1.6,2.66,0,4.82.68,6.48,2.04,1.66,1.36,2.81,3.21,3.45,5.57l3.97-1.05c-.89-3.14-2.52-5.64-4.88-7.5s-5.37-2.78-9.02-2.78c-3.14,0-5.81.69-8,2.08-2.19,1.39-3.86,3.32-5.01,5.79s-1.72,5.33-1.72,8.57.57,6.1,1.72,8.57,2.82,4.4,5.01,5.79c2.19,1.39,4.86,2.08,8,2.08,3.65,0,6.66-.93,9.02-2.78s3.99-4.35,4.88-7.5l-3.97-1.05c-.64,2.34-1.79,4.19-3.45,5.56-1.66,1.37-3.82,2.05-6.48,2.05-2.35,0-4.32-.54-5.9-1.61s-2.76-2.56-3.55-4.47c-.79-1.91-1.18-4.12-1.16-6.63.01-2.51.42-4.73,1.21-6.64s1.96-3.4,3.53-4.47Z"/><path class="cls-2" d="m126.12,31.09c-1.71-1.07-3.75-1.6-6.12-1.6s-4.32.52-6.03,1.57-3.03,2.51-3.97,4.38c-.94,1.88-1.4,4.05-1.4,6.52s.46,4.62,1.38,6.5c.92,1.88,2.23,3.35,3.93,4.42,1.7,1.07,3.73,1.6,6.08,1.6s4.38-.53,6.09-1.59,3.02-2.53,3.95-4.41c.92-1.88,1.38-4.05,1.38-6.52s-.46-4.59-1.37-6.47c-.91-1.87-2.23-3.34-3.93-4.41Zm-.65,17.23c-1.21,1.64-3.03,2.46-5.47,2.46s-4.19-.8-5.41-2.41-1.84-3.74-1.84-6.4c0-1.72.26-3.24.79-4.56.53-1.32,1.32-2.35,2.39-3.09,1.07-.75,2.43-1.12,4.08-1.12,2.43,0,4.24.8,5.46,2.39s1.82,3.72,1.82,6.38-.6,4.72-1.81,6.36Z"/><path class="cls-2" d="m160.51,29.54c-1.58,0-3,.35-4.25,1.05-1.23.68-2.2,1.64-2.91,2.86,0,0,0,0,0,0-.64-1.25-1.56-2.21-2.74-2.89-1.18-.68-2.57-1.02-4.16-1.02s-3.02.35-4.27,1.05c-.98.55-1.8,1.25-2.46,2.11v-2.54h-3.48v23.67h3.92v-15.04c0-1.72.47-3.12,1.42-4.18.95-1.06,2.19-1.59,3.73-1.59s2.79.52,3.73,1.56c.94,1.04,1.4,2.46,1.4,4.25l-.02,14.99h3.88l.02-15.04h0c0-1.33.25-2.42.75-3.27.5-.85,1.14-1.48,1.93-1.89.79-.41,1.62-.61,2.5-.61,1.5,0,2.73.5,3.67,1.5.94,1,1.41,2.39,1.41,4.15l-.02,15.15h3.9l.02-16c0-2.51-.71-4.52-2.13-6.03-1.42-1.5-3.36-2.26-5.83-2.26Z"/><path class="cls-2" d="m190.72,31.13c-1.58-1.09-3.47-1.63-5.67-1.63s-4.09.54-5.62,1.63c-.68.49-1.28,1.06-1.81,1.7v-2.68h-3.49v34.19h3.92v-12.74c.42.45.86.86,1.36,1.23,1.52,1.1,3.39,1.65,5.61,1.65s4.1-.55,5.69-1.64c1.59-1.1,2.8-2.59,3.65-4.48s1.27-4.02,1.27-6.39-.42-4.49-1.27-6.38-2.06-3.37-3.65-4.46Zm.01,15.39c-.51,1.35-1.28,2.42-2.31,3.21s-2.32,1.18-3.87,1.18-2.9-.38-3.92-1.15c-1.02-.77-1.78-1.83-2.27-3.18-.49-1.35-.73-2.89-.73-4.61s.25-3.28.75-4.62c.5-1.34,1.25-2.39,2.26-3.15,1.01-.75,2.28-1.13,3.81-1.13s2.93.39,3.97,1.18c1.04.79,1.81,1.86,2.32,3.2.51,1.34.77,2.85.77,4.51s-.26,3.2-.77,4.55Z"/><rect class="cls-2" x="200.9" y="21.6" width="3.9" height="32.22"/><g><polygon class="cls-2" points="225.71 42.78 236.74 42.78 231.2 26.37 225.71 42.78"/><path class="cls-2" d="m254.65,14.43h-32.81c-6.6,0-12,5.4-12,12v24.06c0,6.6,5.4,12,12,12h32.81c6.6,0,12-5.4,12-12v-24.06c0-6.6-5.4-12-12-12Zm-14.19,39.39l-2.49-7.39h-13.49l-2.47,7.39h-4.05l10.56-31.56h5.44l10.57,31.56h-4.05Zm12.34,0h-3.9v-31.56h3.9v31.56Z"/></g><g><g><polygon class="cls-1" points="1.5 19.55 1.5 55.18 32.25 72.99 62.99 55.18 62.99 19.55 32.25 1.73 1.5 19.55"/><polygon class="cls-1" points="11.13 25.13 11.13 49.6 32.25 61.84 53.37 49.6 53.37 25.13 32.25 12.89 11.13 25.13"/></g><line class="cls-1" x1="52.1" y1="24.46" x2="64" y2="19.48"/><line class="cls-1" x1="32.26" y1="12.51" x2="32.26" y2="2.56"/><line class="cls-1" x1="11.43" y1="25.45" x2="2.51" y2="19.48"/><line class="cls-1" x1="11.43" y1="49.34" x2="2.51" y2="55.32"/><line class="cls-1" x1="32.26" y1="61.29" x2="32.26" y2="72.24"/><line class="cls-1" x1="53.09" y1="49.34" x2="62.02" y2="54.32"/></g></g></g></svg>