<?xml version="1.0" encoding="UTF-8"?><svg id="Layer_2" xmlns="http://www.w3.org/2000/svg" viewBox="0 0 297.35 94.95"><defs><style>.cls-1{stroke-width:3px;}.cls-1,.cls-2{fill:none;stroke:#53bc83;stroke-miterlimit:10;}.cls-3{fill:#fff;}.cls-4{fill:#53bc83;}.cls-2{stroke-width:4px;}</style></defs><g id="Layer_1-2"><rect class="cls-4" x="225.12" y="13.65" width="56.81" height="48.06" rx="12" ry="12"/><rect class="cls-2" x="2" y="2" width="293.35" height="90.95"/><g><path class="cls-4" d="m100.6,26.15c1.56-1.07,3.52-1.6,5.87-1.6,2.66,0,4.82.68,6.48,2.04,1.66,1.36,2.81,3.21,3.45,5.57l3.97-1.05c-.89-3.14-2.52-5.64-4.88-7.5s-5.37-2.78-9.02-2.78c-3.14,0-5.81.69-8,2.08-2.19,1.39-3.86,3.32-5.01,5.79s-1.72,5.33-1.72,8.57.57,6.1,1.72,8.57,2.82,4.4,5.01,5.79c2.19,1.39,4.86,2.08,8,2.08,3.65,0,6.66-.93,9.02-2.78s3.99-4.35,4.88-7.5l-3.97-1.05c-.64,2.34-1.79,4.19-3.45,5.56-1.66,1.37-3.82,2.05-6.48,2.05-2.35,0-4.32-.54-5.9-1.61s-2.76-2.56-3.55-4.47c-.79-1.91-1.18-4.12-1.16-6.63.01-2.51.42-4.73,1.21-6.64s1.96-3.4,3.53-4.47Z"/><path class="cls-4" d="m141.39,30.31c-1.71-1.07-3.75-1.6-6.12-1.6s-4.32.52-6.03,1.57-3.03,2.51-3.97,4.38c-.94,1.88-1.4,4.05-1.4,6.52s.46,4.62,1.38,6.5c.92,1.88,2.23,3.35,3.93,4.42,1.7,1.07,3.73,1.6,6.08,1.6s4.38-.53,6.09-1.59,3.02-2.53,3.95-4.41c.92-1.88,1.38-4.05,1.38-6.52s-.46-4.59-1.37-6.47c-.91-1.87-2.23-3.34-3.93-4.41Zm-.65,17.23c-1.21,1.64-3.03,2.46-5.47,2.46s-4.19-.8-5.41-2.41-1.84-3.74-1.84-6.4c0-1.72.26-3.24.79-4.56.53-1.32,1.32-2.35,2.39-3.09,1.07-.75,2.43-1.12,4.08-1.12,2.43,0,4.24.8,5.46,2.39s1.82,3.72,1.82,6.38-.6,4.72-1.81,6.36Z"/><path class="cls-4" d="m175.78,28.75c-1.58,0-3,.35-4.25,1.05-1.23.68-2.2,1.64-2.91,2.86,0,0,0,0,0,0-.64-1.25-1.56-2.21-2.74-2.89-1.18-.68-2.57-1.02-4.16-1.02s-3.02.35-4.27,1.05c-.98.55-1.8,1.25-2.46,2.11v-2.54h-3.48v23.67h3.92v-15.04c0-1.72.47-3.12,1.42-4.18.95-1.06,2.19-1.59,3.73-1.59s2.79.52,3.73,1.56c.94,1.04,1.4,2.46,1.4,4.25l-.02,14.99h3.88l.02-15.04h0c0-1.33.25-2.42.75-3.27.5-.85,1.14-1.48,1.93-1.89.79-.41,1.62-.61,2.5-.61,1.5,0,2.73.5,3.67,1.5.94,1,1.41,2.39,1.41,4.15l-.02,15.15h3.9l.02-16c0-2.51-.71-4.52-2.13-6.03-1.42-1.5-3.36-2.26-5.83-2.26Z"/><path class="cls-4" d="m206,30.34c-1.58-1.09-3.47-1.63-5.67-1.63s-4.09.54-5.62,1.63c-.68.49-1.28,1.06-1.81,1.7v-2.68h-3.49v34.19h3.92v-12.74c.42.45.86.86,1.36,1.23,1.52,1.1,3.39,1.65,5.61,1.65s4.1-.55,5.69-1.64c1.59-1.1,2.8-2.59,3.65-4.48s1.27-4.02,1.27-6.39-.42-4.49-1.27-6.38-2.06-3.37-3.65-4.46Zm.01,15.39c-.51,1.35-1.28,2.42-2.31,3.21s-2.32,1.18-3.87,1.18-2.9-.38-3.92-1.15c-1.02-.77-1.78-1.83-2.27-3.18-.49-1.35-.73-2.89-.73-4.61s.25-3.28.75-4.62c.5-1.34,1.25-2.39,2.26-3.15,1.01-.75,2.28-1.13,3.81-1.13s2.93.39,3.97,1.18c1.04.79,1.81,1.86,2.32,3.2.51,1.34.77,2.85.77,4.51s-.26,3.2-.77,4.55Z"/><rect class="cls-4" x="216.18" y="20.82" width="3.9" height="32.22"/><path class="cls-3" d="m243.79,21.48l-10.56,31.56h4.05l2.47-7.39h13.49l2.49,7.39h4.05l-10.57-31.56h-5.44Zm-2.81,20.52l5.49-16.41,5.54,16.41h-11.03Z"/><rect class="cls-3" x="264.18" y="21.48" width="3.9" height="31.56"/></g><g><path class="cls-4" d="m114.92,80.01c-.83,0-1.54-.18-2.14-.54-.59-.36-1.05-.87-1.37-1.52-.32-.65-.48-1.41-.48-2.26s.16-1.61.48-2.26c.32-.65.77-1.16,1.37-1.52.59-.36,1.31-.55,2.14-.55.96,0,1.76.24,2.4.72s1.09,1.12,1.35,1.94l-1.4.39c-.16-.54-.44-.97-.83-1.27-.39-.31-.89-.46-1.51-.46-.56,0-1.02.12-1.4.38-.37.25-.65.6-.84,1.05-.19.45-.28.98-.29,1.59,0,.61.09,1.14.28,1.59.19.45.47.8.84,1.05.37.25.84.38,1.4.38.62,0,1.12-.15,1.51-.46.39-.31.66-.73.83-1.27l1.4.39c-.26.81-.71,1.46-1.35,1.94s-1.44.72-2.4.72Z"/><path class="cls-4" d="m123.45,80.01c-.83,0-1.54-.18-2.14-.54-.59-.36-1.05-.87-1.37-1.52-.32-.65-.48-1.41-.48-2.26s.16-1.61.48-2.26c.32-.65.77-1.16,1.37-1.52.59-.36,1.31-.55,2.14-.55s1.54.18,2.14.55c.59.36,1.05.87,1.37,1.52.32.65.48,1.41.48,2.26s-.16,1.61-.48,2.26c-.32.65-.77,1.16-1.37,1.52-.59.36-1.31.54-2.14.54Zm0-1.31c.56,0,1.02-.12,1.39-.37.37-.25.65-.6.84-1.06.19-.45.28-.99.28-1.59s-.09-1.14-.28-1.58c-.19-.45-.47-.8-.84-1.05-.37-.25-.84-.38-1.39-.39-.56,0-1.02.12-1.39.37-.37.25-.65.6-.83,1.06-.19.45-.28.99-.28,1.59s.09,1.14.28,1.58c.19.45.46.8.83,1.05s.84.38,1.4.39Z"/><path class="cls-4" d="m128.59,79.84v-8.32h1.25l2.88,5.89,2.88-5.89h1.25v8.32h-1.3v-5.33l-2.55,5.33h-.55l-2.55-5.33v5.33h-1.31Z"/><path class="cls-4" d="m138.47,79.84v-8.32h3.44c.08,0,.19,0,.31,0s.24.02.35.04c.48.07.88.23,1.19.48.31.25.55.56.7.93.15.38.23.79.23,1.25s-.08.87-.23,1.24c-.15.38-.39.69-.7.93-.31.25-.71.41-1.19.48-.11.02-.23.03-.35.04-.13,0-.23.01-.31.01h-2.04v2.91h-1.39Zm1.39-4.2h1.99c.08,0,.16,0,.26-.01s.19-.02.27-.05c.23-.06.41-.16.55-.31s.23-.31.28-.5c.06-.19.08-.37.08-.54s-.03-.36-.08-.55c-.06-.19-.15-.35-.28-.5-.13-.15-.31-.25-.55-.31-.08-.02-.17-.04-.27-.04-.1,0-.18,0-.26,0h-1.99v2.81Z"/><path class="cls-4" d="m145.96,79.84v-8.32h1.39v7.01h3.67v1.31h-5.06Z"/><path class="cls-4" d="m152.87,79.84v-3.41l-2.83-4.91h1.62l1.91,3.32,1.91-3.32h1.62l-2.82,4.91v3.41h-1.41Z"/><path class="cls-4" d="m161.52,79.84l-2.43-8.32h1.46l1.66,6.01,1.65-5.99h1.46s1.66,5.99,1.66,5.99l1.65-6.01h1.46l-2.43,8.32h-1.37l-1.7-5.91-1.69,5.91h-1.37Z"/><path class="cls-4" d="m171.14,79.84v-8.32h1.39v8.32h-1.39Z"/><path class="cls-4" d="m176.27,79.84v-7.01h-2.69v-1.31h6.77v1.31h-2.69v7.01h-1.39Z"/><path class="cls-4" d="m181.27,79.84v-8.32h1.39v3.5h3.94v-3.5h1.39v8.32h-1.39v-3.51h-3.94v3.51h-1.39Z"/><path class="cls-4" d="m193.92,79.84v-7.01h-2.69v-1.31h6.77v1.31h-2.69v7.01h-1.39Z"/><path class="cls-4" d="m198.92,79.84v-8.32h1.39v3.5h3.94v-3.5h1.39v8.32h-1.39v-3.51h-3.94v3.51h-1.39Z"/><path class="cls-4" d="m207.26,79.84v-8.32h5.37v1.31h-3.98v2.05h3.29v1.31h-3.29v2.35h3.98v1.31h-5.37Z"/><path class="cls-4" d="m216.32,79.84v-8.32h5.01v1.39h-3.62v2.07h2.92v1.39h-2.92v3.46h-1.39Z"/><path class="cls-4" d="m225.72,80.01c-.66,0-1.25-.13-1.75-.4-.5-.27-.9-.65-1.18-1.14-.28-.49-.42-1.06-.42-1.72v-5.21h1.41s0,5.18,0,5.18c0,.31.05.59.16.84.11.25.25.46.43.63.18.17.39.3.62.39.23.09.48.13.73.13s.5-.04.74-.14c.23-.09.44-.22.62-.39.18-.17.32-.38.43-.63.1-.25.16-.52.16-.83v-5.19h1.41v5.23c0,.66-.14,1.23-.42,1.72-.28.49-.68.87-1.18,1.14-.5.27-1.08.4-1.75.4Z"/><path class="cls-4" d="m232.68,79.84v-7.01h-2.69v-1.31h6.77v1.31h-2.69v7.01h-1.39Z"/><path class="cls-4" d="m241.04,80.01c-.66,0-1.25-.13-1.75-.4-.5-.27-.9-.65-1.18-1.14-.28-.49-.42-1.06-.42-1.72v-5.21h1.41s0,5.18,0,5.18c0,.31.05.59.16.84.11.25.25.46.43.63.18.17.39.3.62.39.23.09.48.13.73.13s.5-.04.74-.14c.23-.09.44-.22.62-.39.18-.17.32-.38.43-.63.1-.25.16-.52.16-.83v-5.19h1.41v5.23c0,.66-.14,1.23-.42,1.72-.28.49-.68.87-1.18,1.14-.5.27-1.08.4-1.75.4Z"/><path class="cls-4" d="m246.01,79.84v-8.32h3.44c.08,0,.18,0,.31,0s.24.02.35.04c.48.07.88.23,1.19.48.31.25.55.56.7.93.15.38.23.79.23,1.25,0,.68-.17,1.26-.51,1.75-.34.49-.87.79-1.58.9l-.59.05h-2.14v2.91h-1.39Zm1.39-4.2h1.99c.08,0,.16,0,.26-.01.1,0,.18-.02.27-.05.23-.06.41-.16.54-.31.13-.15.23-.31.28-.5.06-.19.08-.37.08-.54s-.03-.36-.08-.55-.15-.35-.28-.5c-.13-.15-.31-.25-.54-.31-.08-.02-.17-.04-.27-.04-.1,0-.18,0-.26,0h-1.99v2.81Zm3.38,4.2l-1.64-3.38,1.42-.31,1.8,3.7h-1.58Z"/><path class="cls-4" d="m253.63,79.84v-8.32h5.37v1.31h-3.98v2.05h3.29v1.31h-3.29v2.35h3.98v1.31h-5.37Z"/></g><g><polygon class="cls-1" points="16.77 30.76 16.77 66.39 47.52 84.21 78.27 66.39 78.27 30.76 47.52 12.95 16.77 30.76"/><polygon class="cls-1" points="26.4 36.34 26.4 60.82 47.52 73.05 68.64 60.82 68.64 36.34 47.52 24.1 26.4 36.34"/></g></g></svg>