<?xml version="1.0" encoding="UTF-8"?><svg id="Layer_2" xmlns="http://www.w3.org/2000/svg" viewBox="0 0 297.35 94.95"><defs><style>.cls-1{font-size:12px;}.cls-1,.cls-2{font-family:Manrope-Medium, Manrope;font-variation-settings:'wght' 500;font-weight:500;}.cls-1,.cls-3{fill:#53bc83;}.cls-2{font-size:43.84px;}.cls-4{stroke-width:3px;}.cls-4,.cls-5{fill:none;stroke:#53bc83;stroke-miterlimit:10;}.cls-6{letter-spacing:-.04em;}.cls-7{letter-spacing:0em;}.cls-8{fill:#fff;letter-spacing:0em;}.cls-5{stroke-width:4px;}.cls-9{letter-spacing:-.1em;}</style></defs><g id="Layer_1-2"><g><rect class="cls-3" x="226.12" y="11.65" width="56.81" height="48.06" rx="12" ry="12"/><rect class="cls-5" x="2" y="2" width="293.35" height="90.95"/><text class="cls-2" transform="translate(92.43 51.04)"><tspan class="cls-3" x="0" y="0">Compl </tspan><tspan class="cls-8" x="141.92" y="0">AI</tspan></text><text class="cls-1" transform="translate(108.8 76.95)"><tspan x="0" y="0">COMP</tspan><tspan class="cls-9" x="34.99" y="0">L</tspan><tspan class="cls-6" x="40.01" y="0">Y</tspan><tspan class="cls-7" x="46.42" y="0" xml:space="preserve"> WITH THE FUTURE</tspan></text><g><polygon class="cls-4" points="16.56 29.8 16.56 65.43 47.41 83.24 78.25 65.43 78.25 29.8 47.41 11.99 16.56 29.8"/><polygon class="cls-4" points="23.83 34 23.83 61.23 47.41 74.84 70.98 61.23 70.98 34 47.41 20.39 23.83 34"/><line class="cls-4" x1="47.41" y1="20.39" x2="47.37" y2="12.43"/><line class="cls-4" x1="23.83" y1="34" x2="16.98" y2="30.24"/><line class="cls-4" x1="23.83" y1="61.23" x2="16.91" y2="65.25"/><line class="cls-4" x1="47.41" y1="74.84" x2="47.41" y2="83.24"/><line class="cls-4" x1="70.74" y1="60.78" x2="78.25" y2="65.43"/><line class="cls-4" x1="70.98" y1="34" x2="77.91" y2="30.16"/></g></g></g></svg>